<?xml version="1.0" encoding="utf-8"?>
<!-- Generator: Adobe Illustrator 16.0.0, SVG Export Plug-In . SVG Version: 6.00 Build 0)  -->
<!DOCTYPE svg PUBLIC "-//W3C//DTD SVG 1.1//EN" "http://www.w3.org/Graphics/SVG/1.1/DTD/svg11.dtd">
<svg version="1.1" xmlns="http://www.w3.org/2000/svg" xmlns:xlink="http://www.w3.org/1999/xlink" x="0px" y="0px" width="150px"
	 height="150px" viewBox="0 0 150 150" enable-background="new 0 0 150 150" xml:space="preserve">
<g id="Layer_1">
	
		<image overflow="visible" width="150" height="150" xlink:href="atividades.png"  transform="matrix(1 -0.0011 0.0011 1 -0.0815 0.0811)">
	</image>
</g>
<g id="Atividades">
	<g>
		<circle fill="#FDB933" cx="75" cy="75.001" r="74.669"/>
		<g>
			<path fill="#F9A90E" d="M110.001,52.763c-13.123-12.2-36.097-9.694-51.645,7.029c-11.522,12.394-15.168,28.737-11.159,41.205
				c1.847-0.53,3.686-0.826,5.483-0.939c0.756-0.098,1.521-0.166,2.304-0.166c2.994,0,5.814,0.744,8.297,2.041
				c3.386,1.59,6.057,4.1,7.486,7.339c1.39,2.55,2.182,5.475,2.182,8.587c0,0.612-0.031,1.22-0.092,1.818
				c11.22,0.231,23.449-5.347,33.316-15.367C121.756,88.489,123.125,64.963,110.001,52.763z M66.089,59.165
				c2.092-2.249,5.609-2.375,7.856-0.286c2.249,2.091,2.376,5.607,0.286,7.856c-2.09,2.248-5.607,2.378-7.855,0.286
				C64.127,64.932,63.999,61.413,66.089,59.165z M77.396,95.989c-3.472,3.736-9.318,3.949-13.055,0.475
				c-3.735-3.473-3.95-9.319-0.477-13.056c3.475-3.738,9.32-3.948,13.058-0.477C80.657,86.406,80.871,92.253,77.396,95.989z
				 M89.995,58.984c-2.087,2.248-5.605,2.378-7.855,0.286c-2.248-2.09-2.375-5.608-0.287-7.856c2.092-2.248,5.609-2.375,7.857-0.286
				C91.959,53.22,92.089,56.735,89.995,58.984z M97.388,55.079c2.091-2.25,5.607-2.377,7.854-0.287
				c2.25,2.092,2.377,5.607,0.287,7.856c-2.092,2.247-5.609,2.378-7.854,0.286C95.424,60.845,95.297,57.325,97.388,55.079z
				 M109.31,93.286c-2.092,2.249-5.607,2.378-7.856,0.287c-2.248-2.093-2.377-5.61-0.287-7.858c2.091-2.249,5.609-2.376,7.858-0.285
				C111.271,87.52,111.398,91.038,109.31,93.286z M105.296,78.391c-2.248-2.087-2.376-5.607-0.285-7.855
				c2.089-2.249,5.608-2.376,7.854-0.286c2.25,2.091,2.378,5.609,0.287,7.856C111.063,80.354,107.545,80.48,105.296,78.391z"/>
			<path fill="#FFFFFF" d="M102.645,45.649c-13.122-12.199-36.098-9.693-51.646,7.031C39.476,65.073,35.83,81.418,39.839,93.884
				c1.848-0.529,3.685-0.827,5.483-0.938c0.757-0.099,1.521-0.165,2.304-0.165c2.996,0,5.815,0.743,8.298,2.04
				c3.386,1.591,6.056,4.099,7.486,7.339c1.39,2.552,2.181,5.477,2.181,8.587c0,0.612-0.031,1.22-0.091,1.817
				c11.221,0.234,23.448-5.351,33.316-15.367C114.397,81.374,115.769,57.851,102.645,45.649z M58.731,52.053
				c2.092-2.249,5.608-2.376,7.855-0.285c2.25,2.089,2.377,5.606,0.287,7.855c-2.09,2.248-5.607,2.377-7.855,0.286
				C56.77,57.819,56.642,54.301,58.731,52.053z M70.038,88.875c-3.472,3.737-9.318,3.952-13.055,0.478
				c-3.735-3.477-3.949-9.32-0.476-13.055c3.474-3.739,9.319-3.951,13.056-0.478C73.3,79.296,73.513,85.139,70.038,88.875z
				 M82.638,51.872c-2.09,2.248-5.607,2.377-7.855,0.286c-2.247-2.09-2.375-5.608-0.287-7.856c2.093-2.249,5.609-2.376,7.857-0.286
				C84.601,46.106,84.729,49.623,82.638,51.872z M90.029,47.966c2.09-2.248,5.606-2.377,7.854-0.286
				c2.251,2.091,2.379,5.606,0.287,7.856c-2.091,2.248-5.608,2.377-7.856,0.286C88.066,53.732,87.937,50.213,90.029,47.966z
				 M101.95,86.174c-2.089,2.246-5.606,2.377-7.854,0.285c-2.249-2.09-2.378-5.608-0.287-7.855c2.089-2.25,5.606-2.377,7.855-0.287
				C103.913,80.408,104.041,83.924,101.95,86.174z M97.937,71.279c-2.245-2.09-2.374-5.609-0.285-7.856
				c2.091-2.249,5.608-2.376,7.856-0.286c2.25,2.09,2.377,5.607,0.287,7.857C103.706,73.24,100.188,73.37,97.937,71.279z"/>
		</g>
	</g>
</g>
</svg>
