<?xml version="1.0" encoding="utf-8"?>
<!-- Generator: Adobe Illustrator 16.0.0, SVG Export Plug-In . SVG Version: 6.00 Build 0)  -->
<!DOCTYPE svg PUBLIC "-//W3C//DTD SVG 1.1//EN" "http://www.w3.org/Graphics/SVG/1.1/DTD/svg11.dtd">
<svg version="1.1" xmlns="http://www.w3.org/2000/svg" xmlns:xlink="http://www.w3.org/1999/xlink" x="0px" y="0px" width="150px"
	 height="150px" viewBox="0 0 150 150" enable-background="new 0 0 150 150" xml:space="preserve">
<g id="Layer_1">
	<image overflow="visible" width="150" height="150" xlink:href="descontracao.png" >
	</image>
</g>
<g id="Atividades">
	<circle fill="#FDB933" cx="75" cy="75.001" r="74.669"/>
	<circle display="none" fill="#FDB933" cx="75" cy="75.001" r="74.669"/>
	<path fill="#F9A90E" d="M84.406,85.582V67.469c0-3.003,2.435-5.438,5.438-5.438s5.438,2.435,5.438,5.438v18.113
		c0,3.003-2.435,5.438-5.438,5.438S84.406,88.585,84.406,85.582z M80.828,86.272c0.029-0.227,0.049-0.456,0.049-0.69V67.469
		c0-3.003-2.435-5.438-5.438-5.438s-5.438,2.435-5.438,5.438v17.139h5.731C77.64,84.607,79.396,85.23,80.828,86.272z M66.281,59.694
		v-9.976c0-3.003-2.435-5.438-5.438-5.438s-5.438,2.435-5.438,5.438c0,0,0,35.989,0,36.5c1.297-1.938,3.577-1.668,6.422-1.688
		c2.227-0.016,4.453,0.076,4.453,0.076V59.694z M104.219,47.781c-3.003,0-5.438,2.435-5.438,5.438v6.488
		c-0.064-0.048,0,26.511,0,26.511c0,4.443-3.794,8.046-8.237,8.046c-2.463,0-4.665-1.109-6.141-2.853
		c-0.046,0.087-0.105,0.165-0.153,0.25c0.099,0.525,0.156,1.065,0.156,1.619c0,4.79-3.883,8.674-8.673,8.674h-2.077v-3.235h1.682
		c3.003,0,5.438-2.435,5.438-5.438s-2.435-5.438-5.438-5.438H61.229c-3.003,0-5.438,2.435-5.438,5.438
		c0,0.255,0.023,0.504,0.058,0.75h-0.058l0.913,7.923c3.507,10.92,13.742,18.826,25.827,18.826c14.98,0,27.125-12.145,27.125-27.125
		v-2.312v-9.93V53.219C109.656,50.216,107.222,47.781,104.219,47.781z"/>
	<g>
		<path fill="#FFFFFF" d="M82.313,83.488c3.003,0,5.438-2.435,5.438-5.438V59.938c0-3.003-2.435-5.438-5.438-5.438
			s-5.438,2.435-5.438,5.438v18.113C76.875,81.054,79.31,83.488,82.313,83.488z"/>
		<path fill="#FFFFFF" d="M73.297,78.741c0.029-0.227,0.049-0.456,0.049-0.69V59.938c0-3.003-2.435-5.438-5.438-5.438
			s-5.438,2.435-5.438,5.438v17.139h5.731C70.108,77.076,71.865,77.699,73.297,78.741z"/>
		<path fill="#FFFFFF" d="M58.75,52.163v-9.976c0-3.003-2.435-5.438-5.438-5.438s-5.438,2.435-5.438,5.438c0,0,0,35.989,0,36.5
			c1.297-1.938,3.577-1.668,6.422-1.688c2.227-0.016,4.453,0.076,4.453,0.076V52.163z"/>
		<path fill="#FFFFFF" d="M96.688,40.25c-3.003,0-5.438,2.435-5.438,5.438v6.488c-0.064-0.048,0,26.511,0,26.511
			c0,4.443-3.794,8.046-8.237,8.046c-2.463,0-4.665-1.109-6.141-2.853c-0.046,0.087-0.105,0.165-0.153,0.25
			c0.099,0.525,0.156,1.065,0.156,1.619c0,4.79-3.883,8.674-8.673,8.674h-2.077v-3.235h1.682c3.003,0,5.438-2.435,5.438-5.438
			s-2.435-5.438-5.438-5.438H53.697c-3.003,0-5.438,2.435-5.438,5.438c0,0.255,0.023,0.504,0.058,0.75H48.26l0.913,7.923
			c3.507,10.92,13.742,18.826,25.827,18.826c14.98,0,27.125-12.145,27.125-27.125v-2.312v-9.93V45.688
			C102.125,42.685,99.69,40.25,96.688,40.25z"/>
	</g>
</g>
</svg>
