<svg xmlns="http://www.w3.org/2000/svg" xmlns:xlink="http://www.w3.org/1999/xlink" width="150" height="150"><image overflow="visible" width="150" height="150" xlink:href="atividades.png" transform="translate(-.082 .081)"/><circle fill="#FDB933" cx="75" cy="75.001" r="74.669"/><path fill="#F9A90E" d="M110.001 52.763c-13.123-12.2-36.097-9.694-51.645 7.029-11.522 12.394-15.168 28.737-11.159 41.205a25.691 25.691 0 015.483-.939 17.86 17.86 0 012.304-.166c2.994 0 5.814.744 8.297 2.041 3.386 1.59 6.057 4.1 7.486 7.339a17.887 17.887 0 012.182 8.587c0 .612-.031 1.22-.092 1.818 11.22.231 23.449-5.347 33.316-15.367 15.583-15.821 16.952-39.347 3.828-51.547zm-43.912 6.402a5.56 5.56 0 118.142 7.572 5.56 5.56 0 01-8.142-7.572zm11.307 36.824c-3.472 3.736-9.318 3.949-13.055.475-3.735-3.473-3.95-9.319-.477-13.056 3.475-3.738 9.32-3.948 13.058-.477 3.735 3.475 3.949 9.322.474 13.058zm12.599-37.005a5.556 5.556 0 01-7.855.286 5.561 5.561 0 01-.287-7.856 5.562 5.562 0 017.857-.286 5.555 5.555 0 01.285 7.856zm7.393-3.905a5.555 5.555 0 017.854-.287 5.558 5.558 0 01.287 7.856 5.556 5.556 0 01-7.854.286 5.555 5.555 0 01-.287-7.855zm11.922 38.207a5.558 5.558 0 01-7.856.287 5.56 5.56 0 117.856-.287zm-4.014-14.895a5.557 5.557 0 01-.285-7.855 5.556 5.556 0 017.854-.286 5.557 5.557 0 11-7.569 8.141z"/><path fill="#FFF" d="M102.645 45.649C89.523 33.45 66.547 35.956 50.999 52.68 39.476 65.073 35.83 81.418 39.839 93.884a25.626 25.626 0 015.483-.938 17.697 17.697 0 012.304-.165c2.996 0 5.815.743 8.298 2.04 3.386 1.591 6.056 4.099 7.486 7.339a17.898 17.898 0 012.181 8.587c0 .612-.031 1.22-.091 1.817 11.221.234 23.448-5.351 33.316-15.367 15.581-15.823 16.953-39.346 3.829-51.548zm-43.914 6.404a5.556 5.556 0 017.855-.285 5.556 5.556 0 01.287 7.855 5.557 5.557 0 01-7.855.286 5.56 5.56 0 01-.287-7.856zm11.307 36.822a9.237 9.237 0 11-13.531-12.577 9.237 9.237 0 0113.056-.478c3.737 3.476 3.95 9.319.475 13.055zm12.6-37.003a5.557 5.557 0 01-7.855.286 5.56 5.56 0 117.855-.286zm7.391-3.906a5.556 5.556 0 017.854-.286 5.559 5.559 0 11-7.854.286zm11.921 38.208a5.557 5.557 0 01-7.854.285 5.556 5.556 0 01-.287-7.855 5.559 5.559 0 118.141 7.57zm-4.013-14.895a5.559 5.559 0 017.571-8.142 5.559 5.559 0 11-7.571 8.142z"/></svg>