<svg xmlns="http://www.w3.org/2000/svg" xmlns:xlink="http://www.w3.org/1999/xlink" width="150" height="150"><image overflow="visible" width="150" height="150" xlink:href="descontracao.png"/><circle fill="#FDB933" cx="75" cy="75.001" r="74.669"/><path fill="#F9A90E" d="M84.406 85.582V67.469a5.438 5.438 0 0110.876 0v18.113a5.438 5.438 0 01-10.876 0zm-3.578.69c.029-.227.049-.456.049-.69V67.469a5.438 5.438 0 00-10.876 0v17.139h5.731a8.62 8.62 0 015.096 1.664zM66.281 59.694v-9.976a5.438 5.438 0 00-10.876 0v36.5c1.297-1.938 3.577-1.668 6.422-1.688 2.227-.016 4.453.076 4.453.076V59.694zm37.938-11.913a5.438 5.438 0 00-5.438 5.438v6.488c-.064-.048 0 26.511 0 26.511 0 4.443-3.794 8.046-8.237 8.046a8.024 8.024 0 01-6.141-2.853c-.046.087-.105.165-.153.25.099.525.156 1.065.156 1.619a8.674 8.674 0 01-8.673 8.674h-2.077v-3.235h1.682a5.438 5.438 0 000-10.876H61.229a5.438 5.438 0 00-5.438 5.438c0 .255.023.504.058.75h-.058l.913 7.923c3.507 10.92 13.742 18.826 25.827 18.826 14.98 0 27.125-12.145 27.125-27.125V53.219a5.438 5.438 0 00-5.437-5.438z"/><g fill="#FFF"><path d="M82.313 83.488a5.438 5.438 0 005.438-5.438V59.938a5.438 5.438 0 00-10.876 0v18.113a5.438 5.438 0 005.438 5.437zm-9.016-4.747c.029-.227.049-.456.049-.69V59.938a5.438 5.438 0 00-10.876 0v17.139h5.731a8.622 8.622 0 015.096 1.664zM58.75 52.163v-9.976a5.438 5.438 0 00-10.876 0v36.5c1.297-1.938 3.577-1.668 6.422-1.688 2.227-.016 4.453.076 4.453.076V52.163z"/><path d="M96.688 40.25a5.438 5.438 0 00-5.438 5.438v6.488c-.064-.048 0 26.511 0 26.511 0 4.443-3.794 8.046-8.237 8.046a8.024 8.024 0 01-6.141-2.853c-.046.087-.105.165-.153.25.099.525.156 1.065.156 1.619a8.674 8.674 0 01-8.673 8.674h-2.077v-3.235h1.682a5.438 5.438 0 000-10.876h-14.11a5.438 5.438 0 00-5.438 5.438c0 .255.023.504.058.75h-.057l.913 7.923c3.507 10.92 13.742 18.826 25.827 18.826 14.98 0 27.125-12.145 27.125-27.125V45.688a5.438 5.438 0 00-5.437-5.438z"/></g></svg>