<svg xmlns="http://www.w3.org/2000/svg" xmlns:xlink="http://www.w3.org/1999/xlink" width="150" height="150"><image overflow="visible" width="150" height="150" xlink:href="qualidade.png"/><circle fill="#FDB933" cx="75" cy="75.001" r="74.669"/><path fill="#F9A90E" d="M82.75 40.749c-23.196 0-42.001 18.805-42.001 42.001s18.805 42.001 42.001 42.001 42.001-18.805 42.001-42.001-18.805-42.001-42.001-42.001z"/><path fill="#FFF" d="M75 32.999c-23.196 0-42.001 18.805-42.001 42.001S51.804 117.001 75 117.001 117.001 98.196 117.001 75 98.196 32.999 75 32.999zM55.5 75.313a4.688 4.688 0 119.376 0 4.688 4.688 0 01-9.376 0zM75 99.792c-13.472 0-14.871-13.912-14.871-13.912 0-1.052.898-1.904 2.006-1.904 0 0 6.37 2.316 12.865 2.316s12.865-2.316 12.865-2.316c1.107 0 2.006.853 2.006 1.904 0 0-.917 13.912-14.871 13.912zM89.75 80a4.688 4.688 0 110-9.376 4.688 4.688 0 010 9.376z"/></svg>